<?xml version="1.0" encoding="UTF-8"?>
<svg version="1.1" xmlns="http://www.w3.org/2000/svg" width="640" height="640">
<path d="M0 0 C211.2 0 422.4 0 640 0 C640 211.2 640 422.4 640 640 C428.8 640 217.6 640 0 640 C0 428.8 0 217.6 0 0 Z " fill="#FDFDFD" transform="translate(0,0)"/>
<path d="M0 0 C0.66 0 1.32 0 2 0 C2.25711122 23.704499 2.45101047 47.40878866 2.56993389 71.11440182 C2.62662347 82.12174565 2.70389098 93.12822249 2.82983398 104.13500977 C2.93957112 113.73007003 3.01046286 123.32450238 3.03497344 132.92017275 C3.04929908 138.00009792 3.08289181 143.07822698 3.16303062 148.15757561 C3.23791099 152.94257212 3.26068739 157.72503993 3.24418449 162.51056671 C3.24720153 164.26300129 3.26896435 166.01552364 3.31126022 167.76745033 C3.61495169 180.99984114 3.61495169 180.99984114 -0.4163723 185.99273872 C-3.17612094 188.2675857 -5.94815325 190.14541345 -9 192 C-10.13419323 192.9550209 -11.24499904 193.93972089 -12.3125 194.96875 C-16.87761998 199.26845602 -21.47586814 203.45282112 -26.375 207.375 C-31.41496622 211.42730713 -36.10626744 215.77485712 -40.81030273 220.20483398 C-44.25108867 223.42754525 -47.74971323 226.49494206 -51.4375 229.4375 C-56.00268714 233.08830503 -60.25697675 236.98641549 -64.5 241 C-69.58807878 245.81266842 -74.78113579 250.35497189 -80.2578125 254.7265625 C-84.02876882 257.8529109 -87.57654418 261.19699152 -91.14916992 264.54589844 C-95.47917682 268.58060416 -99.99482506 272.32763682 -104.625 276.015625 C-106.73830202 277.78134445 -108.57930044 279.59956248 -110.4375 281.625 C-113 284 -113 284 -114.83203125 283.9375 C-117.87870133 282.62002104 -119.84234345 280.65195519 -122.25 278.375 C-123.23381004 277.45512457 -124.21818775 276.53585589 -125.203125 275.6171875 C-126.12609375 274.75351562 -127.0490625 273.88984375 -128 273 C-129.32661525 271.82569984 -130.65914351 270.65801242 -132 269.5 C-135.15558345 266.76216181 -138.23703636 263.95251254 -141.3125 261.125 C-144.91391171 257.83567762 -148.57307275 254.67982364 -152.375 251.625 C-157.16980275 247.75910491 -161.66715828 243.65276702 -166.15917969 239.44628906 C-170.39512864 235.5019544 -174.806439 231.83511999 -179.3203125 228.2109375 C-183.09521509 225.09636773 -186.66243009 221.77122774 -190.26171875 218.45703125 C-192.88160046 216.10623867 -195.56552219 213.88749541 -198.3125 211.6875 C-203.36063514 207.61874629 -208.06829563 203.26196567 -212.78369141 198.81958008 C-217.29441905 194.59365522 -221.9520569 190.65128912 -226.79296875 186.8046875 C-227.52128906 186.20914063 -228.24960938 185.61359375 -229 185 C-229.53349564 184.60354782 -230.06699127 184.20709564 -230.61665344 183.79862976 C-232.71227334 181.07390088 -232.35942736 178.81673353 -232.34057617 175.41723633 C-232.34101425 174.75355545 -232.34145233 174.08987457 -232.34190369 173.40608215 C-232.33981519 171.21443161 -232.31648268 169.02354799 -232.29296875 166.83203125 C-232.28737298 165.3117464 -232.28310279 163.79145614 -232.28010559 162.27116394 C-232.26865524 158.27122035 -232.23918672 154.27160394 -232.20599365 150.27178955 C-232.17529669 146.1897016 -232.16160107 142.10756075 -232.14648438 138.02539062 C-232.11431695 130.01677699 -232.0631186 122.00842921 -232 114 C-231.22642151 114.00850983 -230.45284302 114.01701965 -229.65582275 114.02578735 C-209.63223881 114.36678066 -209.63223881 114.36678066 -189.75 112.375 C-188.60781006 112.19678711 -187.46562012 112.01857422 -186.28881836 111.83496094 C-116.75140235 100.45637359 -58.71255232 59.58746997 -9.75 10.875 C-8.80169312 9.93370239 -8.80169312 9.93370239 -7.83422852 8.97338867 C-5.4506699 6.58136502 -3.21405006 4.28943291 -1.203125 1.5703125 C-0.60757813 0.79300781 -0.60757813 0.79300781 0 0 Z " fill="#3C454D" transform="translate(423,301)"/>
<path d="M0 0 C2.33549297 2.33549297 2.69046959 3.80076396 3.5859375 6.953125 C3.87726563 7.96632813 4.16859375 8.97953125 4.46875 10.0234375 C4.91734375 11.62058594 4.91734375 11.62058594 5.375 13.25 C5.66632813 14.26835937 5.95765625 15.28671875 6.2578125 16.3359375 C7.1777317 19.55565471 8.08898808 22.77775225 9 26 C11.57234919 35.04359829 14.17769213 44.07722924 16.80529785 53.10491943 C19.64285327 62.85517816 22.46991629 72.60816347 25.25 82.375 C26.99611542 88.50742365 28.76076373 94.63367216 30.5625 100.75 C30.76157959 101.42603271 30.96065918 102.10206543 31.16577148 102.79858398 C32.24438899 106.45499635 33.33072488 110.10902719 34.421875 113.76171875 C34.77076782 114.93492676 34.77076782 114.93492676 35.12670898 116.13183594 C35.5744262 117.63708384 36.02435975 119.14167479 36.47680664 120.64550781 C38 125.77484148 38 125.77484148 38 128 C29.45591121 125.46037582 21.58093186 121.64275438 13.5625 117.8125 C11.50487501 116.83143018 9.44657233 115.85192521 7.38597107 114.87712097 C5.53481178 114.00122699 3.68639675 113.1195401 1.83813477 112.23754883 C-0.7895135 110.86676748 -0.7895135 110.86676748 -3 111 C-3.27880005 111.78479736 -3.27880005 111.78479736 -3.56323242 112.58544922 C-9.88261117 130.28749939 -9.88261117 130.28749939 -13.8984375 137.83984375 C-15.03166818 140.06210108 -15.92889337 142.29304684 -16.8125 144.625 C-20.6506692 154.50126464 -25.76057079 163.93808143 -30.9921875 173.13671875 C-32.15251956 175.2129479 -32.15251956 175.2129479 -33.4375 178.375 C-35.61947927 183.4371919 -38.31300177 188.19122971 -41 193 C-41.66 193 -42.32 193 -43 193 C-43.17015625 193.58007812 -43.3403125 194.16015625 -43.515625 194.7578125 C-45.07379072 199.7804105 -46.7147072 203.8668897 -50 208 C-50.66 208 -51.32 208 -52 208 C-52.26296875 208.71671875 -52.5259375 209.4334375 -52.796875 210.171875 C-54.91029553 215.1397856 -58.04928555 219.49561849 -61 224 C-61.67869141 225.06541016 -61.67869141 225.06541016 -62.37109375 226.15234375 C-70.04504034 238.01621964 -78.92103446 249.19244925 -88 260 C-88.4316748 260.5165918 -88.86334961 261.03318359 -89.30810547 261.56542969 C-92.51288349 265.39933168 -95.74620551 269.20763784 -99 273 C-99.6703125 273.78503906 -100.340625 274.57007813 -101.03125 275.37890625 C-106.29736366 281.38687323 -111.92630682 287.02863248 -117.5625 292.6875 C-118.36623047 293.49590332 -119.16996094 294.30430664 -119.99804688 295.13720703 C-124.83770392 299.96396097 -129.80053614 304.56473252 -135 309 C-136.02114851 309.888961 -137.04200436 310.77825835 -138.0625 311.66796875 C-185.44622058 352.30959079 -245.07106946 384.32497145 -308.75 384.375 C-310.7297583 384.37765869 -310.7297583 384.37765869 -312.74951172 384.38037109 C-337.04522081 384.10068614 -358.67905649 377.56927245 -376 360 C-376.98613281 359.02933594 -376.98613281 359.02933594 -377.9921875 358.0390625 C-382.81248325 352.97051118 -385.52029382 347.49854034 -388 341 C-388.59167969 339.49953125 -388.59167969 339.49953125 -389.1953125 337.96875 C-394.93065397 321.76540766 -392.39390407 305.17434037 -385.36523438 289.84570312 C-378.13457049 274.99931041 -367.52174575 262.4939917 -354 253 C-355.3772875 255.91123329 -356.96839327 258.48778141 -358.8125 261.125 C-368.10889127 274.9788904 -372.36810326 289.00362378 -369.34375 305.6015625 C-366.49417103 316.09096094 -361.08920345 323.52931271 -351.90844727 329.38598633 C-342.34639478 334.69235156 -332.43360525 335.63820825 -321.6875 335.4375 C-319.76587036 335.41224243 -319.76587036 335.41224243 -317.80541992 335.38647461 C-278.21324032 334.5441948 -239.45618398 313.86925911 -208 291 C-207.33661621 290.52062988 -206.67323242 290.04125977 -205.98974609 289.54736328 C-184.74245004 274.12667677 -165.63347626 256.42661403 -148 237 C-147.15695312 236.08347656 -146.31390625 235.16695312 -145.4453125 234.22265625 C-129.84600336 217.13898378 -116.93571982 198.14266102 -104.64453125 178.59765625 C-103.53447217 176.84423751 -102.40632891 175.10215586 -101.26171875 173.37109375 C-94.75231417 163.45543755 -89.70073967 152.87175473 -85 142 C-84.375 140.625 -83.75 139.25 -83.125 137.875 C-80.74099892 132.51569049 -78.59226372 127.06210603 -76.43359375 121.609375 C-75.62495272 119.57345043 -74.80978154 117.54000402 -73.97265625 115.515625 C-70.24704338 106.49740328 -67.18333231 97.21985368 -64 88 C-64.76078857 87.89768066 -65.52157715 87.79536133 -66.30541992 87.68994141 C-75.11913593 86.42846543 -83.6767828 84.52410109 -92.3125 82.375 C-93.65026506 82.04636346 -94.98815528 81.71823594 -96.32617188 81.390625 C-99.5520402 80.59871509 -102.7765713 79.80177141 -106 79 C-106 78.34 -106 77.68 -106 77 C-103.57719928 75.144564 -101.14370618 73.40477479 -98.625 71.6875 C-97.05144273 70.595975 -95.47854666 69.50349632 -93.90625 68.41015625 C-92.68421875 67.56348389 -92.68421875 67.56348389 -91.4375 66.69970703 C-87.63675796 64.04938992 -83.87857437 61.34154459 -80.125 58.625 C-79.38266113 58.08834717 -78.64032227 57.55169434 -77.87548828 56.9987793 C-71.59148103 52.446686 -65.3465247 47.84233306 -59.10595703 43.23095703 C-53.76186357 39.28601261 -48.39103275 35.38050469 -43 31.5 C-34.37979138 25.29390404 -25.82915309 18.99596078 -17.28515625 12.68554688 C-13.6328318 9.99156739 -9.97310654 7.30770984 -6.3125 4.625 C-5.67030518 4.15433105 -5.02811035 3.68366211 -4.36645508 3.19873047 C-2.91110732 2.13229962 -1.45557712 1.06611777 0 0 Z " fill="#C8994F" transform="translate(513,17)"/>
<path d="M0 0 C3.42229969 1.49676889 5.82470213 3.47418977 8.5625 6 C9.87541016 7.20269531 9.87541016 7.20269531 11.21484375 8.4296875 C12.13394531 9.27789062 13.05304688 10.12609375 14 11 C21.31079018 17.67198327 28.64491302 24.29700592 36.18359375 30.7109375 C42.45736588 36.05438837 48.63788196 41.46040165 54.67529297 47.06982422 C57.81503117 49.96748224 61.04166489 52.70346573 64.375 55.375 C70.09306155 59.97592941 75.40821801 64.95578678 80.7578125 69.97265625 C85.98733726 74.87401245 91.35043792 79.58627963 97 84 C95.42663801 88.43248217 93.12423403 92.29243296 90.625 96.25 C90.1916333 96.93876221 89.7582666 97.62752441 89.31176758 98.3371582 C85.89554213 103.7081061 82.3373002 108.97284938 78.6875 114.1875 C77.95104248 115.24662598 77.95104248 115.24662598 77.19970703 116.32714844 C74.40816923 120.26468597 71.52155813 123.69653472 68 127 C67.11699219 126.16597656 66.23398437 125.33195312 65.32421875 124.47265625 C58.93752512 118.47243855 52.4980859 112.66712399 45.65625 107.18359375 C41.82976608 104.03799888 38.20059782 100.69139587 34.5546875 97.33984375 C31.74768509 94.76890424 28.89014598 92.26428828 26.015625 89.76953125 C23.71392236 87.74885044 21.45235621 85.68687382 19.1875 83.625 C15.53919766 80.34885834 11.86450429 77.1093565 8.125 73.9375 C7.24070312 73.18339844 6.35640625 72.42929688 5.4453125 71.65234375 C2.93949106 69.62674535 2.93949106 69.62674535 -1 70 C-2.87335528 71.20393889 -2.87335528 71.20393889 -4.625 72.9375 C-5.32238281 73.57816406 -6.01976562 74.21882813 -6.73828125 74.87890625 C-7.48464844 75.57886719 -8.23101562 76.27882813 -9 77 C-14.04637967 81.61120265 -19.11844302 86.14133859 -24.4375 90.4375 C-29.21428509 94.30058217 -33.73946882 98.37911435 -38.2578125 102.5390625 C-40.90015883 104.91039895 -43.60694167 107.15252997 -46.375 109.375 C-51.40107205 113.41471448 -56.10894506 117.73119625 -60.76123047 122.19091797 C-64.78847014 126 -64.78847014 126 -67 126 C-67 162.96 -67 199.92 -67 238 C-89.01161544 246.10954253 -89.01161544 246.10954253 -96.5 247.4375 C-97.27601563 247.59669922 -98.05203125 247.75589844 -98.8515625 247.91992188 C-103.20821112 248.75027322 -107.36096983 249.07284472 -111.79882812 249.03930664 C-112.77662231 249.03363174 -113.7544165 249.02795685 -114.76184082 249.02210999 C-115.50043335 249.01481369 -116.23902588 249.0075174 -117 249 C-117.25726113 230.11974499 -117.45108195 211.23984685 -117.56993389 192.35820103 C-117.62659287 183.59049869 -117.70379804 174.82388693 -117.82983398 166.05688477 C-117.93966947 158.41311826 -118.0104852 150.77014164 -118.03497344 143.12560791 C-118.04928377 139.07946858 -118.08276694 135.03558835 -118.16303062 130.99017525 C-118.23807267 127.17680831 -118.26065864 123.36661508 -118.24418449 119.55257988 C-118.24719476 118.15809705 -118.26886927 116.76350103 -118.31126022 115.36965942 C-118.48288815 109.43188326 -118.59738436 104.84262212 -114.58733559 100.2169323 C-111.81901623 97.93935959 -109.00005668 95.9566579 -106 94 C-104.83528005 93.01628492 -103.69057986 92.0075453 -102.58203125 90.9609375 C-96.11595089 84.92349717 -89.55821648 79.02589055 -82.8203125 73.29296875 C-75.98373018 67.46970634 -69.26569674 61.55370857 -62.671875 55.45703125 C-59.82024327 52.83469739 -56.91869929 50.28011681 -53.9921875 47.7421875 C-51.63979365 45.68499601 -49.31965034 43.59403085 -47 41.5 C-43.38323655 38.23609152 -39.73610392 35.01209051 -36.0625 31.8125 C-33.69035571 29.72788836 -31.34443935 27.61571356 -29 25.5 C-25.38595942 22.23854875 -21.74210646 19.01640845 -18.0703125 15.8203125 C-15.65172039 13.6937768 -13.26346037 11.53530894 -10.875 9.375 C-7.3154386 6.16150707 -3.71560689 3.03115299 0 0 Z " fill="#133451" transform="translate(307,90)"/>
<path d="M0 0 C3.96 0 7.92 0 12 0 C12 5.94 12 11.88 12 18 C15.3 18 18.6 18 22 18 C22 12.06 22 6.12 22 0 C26.29 0 30.58 0 35 0 C35 5.94 35 11.88 35 18 C36.27875 18.061875 37.5575 18.12375 38.875 18.1875 C46.35761819 19.0712738 52.84294605 21.91149743 57.625 27.875 C61.27051184 34.11101882 61.30849861 41.03664482 60 48 C58.16409744 51.33024185 56.10930358 53.79816285 53 56 C52.34 56 51.68 56 51 56 C51 56.66 51 57.32 51 58 C51.70125 58.0825 52.4025 58.165 53.125 58.25 C58.87949761 59.75117329 62.66727036 63.18605718 66 68 C68.1825979 74.54779371 68.301734 83.22326702 65.375 89.5625 C61.10183243 96.52123469 54.68968869 99.86397536 47 102 C42.97536276 102.56952414 39.06916046 102.81073672 35 103 C35 108.61 35 114.22 35 120 C30.71 120 26.42 120 22 120 C22 114.39 22 108.78 22 103 C19.03 103 16.06 103 13 103 C13 108.94 13 114.88 13 121 C8.38 121 3.76 121 -1 121 C-1 115.06 -1 109.12 -1 103 C-7.6 103 -14.2 103 -21 103 C-21 98.05 -21 93.1 -21 88 C-17.37 88 -13.74 88 -10 88 C-10 69.85 -10 51.7 -10 33 C-14.29 32.67 -18.58 32.34 -23 32 C-23 27.38 -23 22.76 -23 18 C-15.41 18 -7.82 18 0 18 C0 12.06 0 6.12 0 0 Z " fill="#FBFBFA" transform="translate(288,423)"/>
<path d="M0 0 C3.3 0 6.6 0 10 0 C10 3.3 10 6.6 10 10 C12.0728125 10.433125 12.0728125 10.433125 14.1875 10.875 C17.6203806 11.63304934 20.78416767 12.54768863 24 14 C23.39009109 17.55780196 22.4216319 20.6828589 21 24 C20.39414062 23.7834375 19.78828125 23.566875 19.1640625 23.34375 C13.20131511 21.36228318 7.29508953 19.87351029 1 21 C-1.3052979 22.22065377 -1.3052979 22.22065377 -3 24 C-3.33397787 27.12586875 -3.33397787 27.12586875 -3 30 C1.70249693 31.60157504 6.39830163 33.11483824 11.1875 34.4375 C17.39946573 36.29627424 22.78534307 39.1888894 26 45 C26.79163639 50.28296123 26.67068694 54.58123916 24.375 59.4375 C20.08344857 64.06785812 16.32875558 66.39726137 10 67 C10 70.3 10 73.6 10 77 C6.7 77 3.4 77 0 77 C0 73.7 0 70.4 0 67 C-1.32 66.9175 -2.64 66.835 -4 66.75 C-9.05402843 66.2133599 -12.59676524 64.48182323 -17 62 C-16.745504 60.51793505 -16.47088238 59.03931385 -16.1875 57.5625 C-16.03667969 56.73878906 -15.88585937 55.91507812 -15.73046875 55.06640625 C-15.48941406 54.38449219 -15.24835938 53.70257813 -15 53 C-12 52 -12 52 -9.6171875 52.99609375 C-8.71226562 53.47175781 -7.80734375 53.94742188 -6.875 54.4375 C-1.73751629 56.8771252 2.35218022 58.02996313 8 57 C11.07499469 56.02662806 11.07499469 56.02662806 13 54 C13.41780879 51.37305578 13.41780879 51.37305578 13 49 C7.82229159 46.60514262 2.61989641 44.49297471 -2.75 42.5625 C-9.29571935 40.08016769 -12.1323213 37.80151806 -16 32 C-16.70162213 26.8031012 -16.62739539 22.32718256 -14.375 17.5625 C-10.79346701 13.6982144 -8.00481462 11.14850479 -2.625 10.75 C-1.75875 10.8325 -0.8925 10.915 0 11 C0 7.37 0 3.74 0 0 Z " fill="#1F3E5A" transform="translate(469,276)"/>
<path d="M0 0 C3.87542277 -0.0811135 7.74913882 -0.1405605 11.625 -0.1875 C13.26662109 -0.22520508 13.26662109 -0.22520508 14.94140625 -0.26367188 C21.79934182 -0.32601674 26.26971185 0.13905867 31.84375 4.4140625 C33.79347436 7.08834659 33.52748664 9.5700341 33.41796875 12.77734375 C32.7380669 16.39289657 30.89151147 17.87955826 28 20 C24.35332068 21.7471364 21.50910311 22.24032517 17.48046875 22.1953125 C15.9480957 22.18564453 15.9480957 22.18564453 14.38476562 22.17578125 C13.32966797 22.15902344 12.27457031 22.14226562 11.1875 22.125 C10.11306641 22.11597656 9.03863281 22.10695313 7.93164062 22.09765625 C5.28766448 22.07415424 2.6438034 22.03828517 0 22 C0 14.74 0 7.48 0 0 Z " fill="#4E5054" transform="translate(299,489)"/>
<path d="M0 0 C4.2384375 -0.0928125 4.2384375 -0.0928125 8.5625 -0.1875 C9.43849854 -0.21481201 10.31449707 -0.24212402 11.21704102 -0.27026367 C17.40999412 -0.33530542 21.61616057 0.9260339 26.9375 4.1875 C28.77456537 7.3213174 28.72174569 10.54641313 28 14 C25.13047986 17.77136933 22.49195785 19.64758258 18 21 C14.88956938 21.23336408 11.80430735 21.18846504 8.6875 21.125 C5.820625 21.08375 2.95375 21.0425 0 21 C0 14.07 0 7.14 0 0 Z " fill="#4C5255" transform="translate(299,455)"/>
<path d="M0 0 C6.27 0 12.54 0 19 0 C19 6.27 19 12.54 19 19 C12.73 19 6.46 19 0 19 C0 12.73 0 6.46 0 0 Z " fill="#2B4961" transform="translate(311,237)"/>
<path d="M0 0 C6.27 0 12.54 0 19 0 C19 6.27 19 12.54 19 19 C12.73 19 6.46 19 0 19 C0 12.73 0 6.46 0 0 Z " fill="#29455F" transform="translate(311,211)"/>
<path d="M0 0 C6.27 0 12.54 0 19 0 C19 6.27 19 12.54 19 19 C12.73 19 6.46 19 0 19 C0 12.73 0 6.46 0 0 Z " fill="#2B4861" transform="translate(286,211)"/>
<path d="M0 0 C5.61 0 11.22 0 17 0 C17 5.94 17 11.88 17 18 C11.39 18 5.78 18 0 18 C0 12.06 0 6.12 0 0 Z " fill="#1B3952" transform="translate(287,237)"/>
<path d="M0 0 C0.66 0.33 1.32 0.66 2 1 C2 1.66 2 2.32 2 3 C1.34 3 0.68 3 0 3 C-0.268125 3.598125 -0.53625 4.19625 -0.8125 4.8125 C-1.99917406 6.99847854 -3.09599113 8.41332594 -5 10 C-5.66 10 -6.32 10 -7 10 C-7.26039063 10.58523438 -7.52078125 11.17046875 -7.7890625 11.7734375 C-9.07650775 14.14067554 -10.46564527 15.73232086 -12.375 17.625 C-12.96023438 18.21539062 -13.54546875 18.80578125 -14.1484375 19.4140625 C-16.02228876 21.01909122 -17.75758108 21.99414131 -20 23 C-20.66 23.33 -21.32 23.66 -22 24 C-20.4608199 20.33247995 -18.24514548 18.01419427 -15.4296875 15.234375 C-14.08583984 13.90019531 -14.08583984 13.90019531 -12.71484375 12.5390625 C-11.77769531 11.61867188 -10.84054687 10.69828125 -9.875 9.75 C-8.92011363 8.80515144 -7.96568141 7.85984367 -7.01171875 6.9140625 C-4.67890913 4.60481662 -2.34155914 2.30036797 0 0 Z " fill="#173649" transform="translate(419,306)"/>
<path d="M0 0 C0.33 1.32 0.66 2.64 1 4 C-2.81495577 7.39717963 -6.48954059 10.53974941 -11 13 C-9.46356148 9.31930113 -7.21849055 7.01224796 -4.375 4.25 C-3.55773437 3.45078125 -2.74046875 2.6515625 -1.8984375 1.828125 C-0.95871094 0.92320312 -0.95871094 0.92320312 0 0 Z " fill="#17374B" transform="translate(408,317)"/>
<path d="M0 0 C0.33 1.32 0.66 2.64 1 4 C-1.375 5.5625 -1.375 5.5625 -4 7 C-4.66 6.67 -5.32 6.34 -6 6 C-4.02 4.02 -2.04 2.04 0 0 Z " fill="#1E3E52" transform="translate(408,317)"/>
<path d="M0 0 C0.66 0.33 1.32 0.66 2 1 C0.95125002 3.62187494 0.35068687 4.79371361 -2.125 6.25 C-2.74375 6.4975 -3.3625 6.745 -4 7 C-3.43628586 3.73045798 -2.50037734 2.17424117 0 0 Z " fill="#203E5C" transform="translate(281,177)"/>
<path d="M0 0 C0 3 0 3 -2.5 5.6875 C-3.325 6.450625 -4.15 7.21375 -5 8 C-5.99 7.67 -6.98 7.34 -8 7 C-5.36 4.69 -2.72 2.38 0 0 Z " fill="#CDAC77" transform="translate(158,270)"/>
<path d="M0 0 C0.66 0.33 1.32 0.66 2 1 C2 1.66 2 2.32 2 3 C1.34 3 0.68 3 0 3 C-0.66 4.32 -1.32 5.64 -2 7 C-2.6875 5.1875 -2.6875 5.1875 -3 3 C-1.5625 1.25 -1.5625 1.25 0 0 Z " fill="#122E42" transform="translate(419,306)"/>
<path d="M0 0 C0.99 0.33 1.98 0.66 3 1 C1.68 2.65 0.36 4.3 -1 6 C-1.66 5.67 -2.32 5.34 -3 5 C-1.125 1.125 -1.125 1.125 0 0 Z " fill="#23405A" transform="translate(393,188)"/>
</svg>
